<svg width="104" height="79" viewBox="0 0 104 79" fill="none" xmlns="http://www.w3.org/2000/svg">
<path d="M20.0398 10C19.7476 12.5086 17.6781 14.9445 16.7507 16.6833C13.3053 23.1427 9.83609 29.4694 6.28027 35.7449C5.94402 36.3383 1.84728 42.4033 2.0044 43.8872C2.36604 47.3026 6.91956 52.6549 8.30857 54.7123C11.6425 59.6505 15.4338 63.4179 18.9434 67.9377C19.8063 69.049 21.8803 72.8055 23 71.8442" stroke="black" stroke-width="3" stroke-linecap="round"/>
<path d="M83.9602 72C84.2524 69.4914 86.3219 67.0555 87.2493 65.3167C90.6947 58.8573 94.1639 52.5306 97.7197 46.2551C98.056 45.6617 102.153 39.5967 101.996 38.1128C101.634 34.6974 97.0804 29.3451 95.6914 27.2877C92.3575 22.3495 88.5662 18.5821 85.0566 14.0623C84.1937 12.951 82.1197 9.19446 81 10.1558" stroke="black" stroke-width="3" stroke-linecap="round"/>
<path d="M65 2C60.781 22.6438 56.3354 42.9326 50.7222 62.6061C49.3903 67.2742 48.5489 72.5996 47 77" stroke="black" stroke-width="3" stroke-linecap="round"/>
<path d="M19 24.2813C24.752 14.4418 27.4 41.4047 27.4 46.9528C27.4 49.8266 27.4 52.7005 27.4 55.5743C27.4 57.323 27.4 59.0716 27.4 60.8202C27.4 61.6349 27.0681 63.2463 27.1733 63.8766C27.2689 64.4486 28.3415 62.859 28.4667 62.6449C29.1533 61.4703 29.6819 59.0499 30.1467 57.6043C31.1835 54.3794 32.2 50.1323 32.2 46.3598C32.2 45.0401 31.8889 39.7683 32.4933 43.2578C33.1426 47.0065 33.8002 50.7301 34.7067 54.2743C35.4965 57.3627 38.7089 65.6225 40.1733 58.8587C40.9518 55.2633 41.6731 52.0001 41.8 48.0932C41.9429 43.6945 41.9758 38.876 42.4 34.5222C42.8768 29.6286 43.3371 24.6703 44.9333 20.4039C45.4412 19.0464 48.1463 13.9708 49 16.8914" stroke="black" stroke-width="3" stroke-linecap="round"/>
<path d="M67.5822 17.3444C69.0607 15.0622 72.8461 15.5636 72.9813 19.7902C73.1481 25.0043 72.1535 29.5009 71.7945 34.4879C71.4203 39.6868 69.4997 45.0111 68.2864 49.7517C67.1865 54.0491 65.8561 58.5403 65 63" stroke="black" stroke-width="3" stroke-linecap="round"/>
<path d="M72 38C74.084 35.9556 76.1767 31.6825 77.3289 28.1099C78.2838 25.1496 80.3823 22.2317 81 19" stroke="black" stroke-width="3" stroke-linecap="round"/>
<path d="M72 39C75.3888 39.6192 77.6817 45.1435 79.9053 48.8C81.1707 50.881 82.5425 53.8173 83.4322 56.3778C84.5557 59.6111 83.8078 60.1646 82.9457 63" stroke="black" stroke-width="3" stroke-linecap="round"/>
</svg>
