<?xml version="1.0" encoding="utf-8"?>
<!-- Generator: Adobe Illustrator 24.0.0, SVG Export Plug-In . SVG Version: 6.00 Build 0)  -->
<svg version="1.1" id="Layer_1" xmlns="http://www.w3.org/2000/svg" xmlns:xlink="http://www.w3.org/1999/xlink" x="0px" y="0px"
	 viewBox="0 0 256 256" enable-background="new 0 0 256 256" xml:space="preserve">
<g>
</g>
<g>
	<g>
		<path fill="#13BF6D" d="M151.151,43.962c0,13.688-11.096,24.783-24.783,24.783s-24.784-11.096-24.784-24.783
			S126.368,4.87,126.368,4.87S151.151,30.274,151.151,43.962z"/>
		<circle fill="#FC5D3D" cx="126.368" cy="156.287" r="9.909"/>
		<circle fill="#72C3E9" cx="102.499" cy="87.87" r="9.909"/>
		<circle fill="#FC5D3D" cx="150.236" cy="87.87" r="9.909"/>
		<circle fill="#72C3E9" cx="46.358" cy="144.109" r="9.909"/>
		<circle fill="#FC5D3D" cx="83.389" cy="144.109" r="9.909"/>
		<circle fill="#72C3E9" cx="21.936" cy="206.577" r="9.909"/>
		<circle fill="#72C3E9" cx="107.81" cy="206.577" r="9.909"/>
		<circle fill="#FC5D3D" cx="64.873" cy="241.198" r="9.909"/>
		<circle fill="#72C3E9" cx="172.612" cy="144.109" r="9.909"/>
		<circle fill="#FC5D3D" cx="209.643" cy="144.109" r="9.909"/>
		<circle fill="#72C3E9" cx="148.191" cy="206.577" r="9.909"/>
		<circle fill="#72C3E9" cx="234.064" cy="206.577" r="9.909"/>
		<circle fill="#FC5D3D" cx="191.127" cy="241.198" r="9.909"/>
	</g>
	<g>
		<path d="M113.959,156.287c0,6.842,5.566,12.409,12.409,12.409s12.409-5.566,12.409-12.409c0-5.986-4.261-10.996-9.909-12.156
			v-28.306h8.07c1.38,0,2.5-1.12,2.5-2.5c0-1.37-1.12-2.5-2.5-2.5h-8.07V90.372h9.214c1.161,5.647,6.17,9.907,12.155,9.907
			c6.842,0,12.409-5.566,12.409-12.409s-5.566-12.409-12.409-12.409c-5.987,0-10.997,4.261-12.156,9.911h-9.213V71.129
			c13.808-1.247,24.78-12.825,24.78-27.164c-0.068-12.304-16.922-31.871-25.35-40.7c-0.08-0.08-0.13-0.13-0.14-0.14
			c-0.95-0.97-2.63-0.98-3.58,0c-0.01,0.01-0.04,0.05-0.11,0.12c-3.15,3.27-13.92,14.86-20.45,26.28
			c-0.686,1.205-0.27,2.727,0.93,3.41c1.16,0.66,2.75,0.22,3.41-0.93c5.23-9.17,15.366-20.888,18.01-23.49
			c6.598,7.116,22.462,25.716,22.28,35.45c-0.019,11.415-8.69,20.866-19.78,22.132v-6.831h2.92c3.584,0,6.5-2.916,6.5-6.5V31.745
			c0-1.381-1.119-2.5-2.5-2.5s-2.5,1.119-2.5,2.5v21.021c0,0.827-0.673,1.5-1.5,1.5h-2.92V38.475c0-1.381-1.119-2.5-2.5-2.5
			s-2.5,1.119-2.5,2.5v6.249h-2.92c-0.827,0-1.5-0.673-1.5-1.5v-9.729c0-1.381-1.119-2.5-2.5-2.5s-2.5,1.119-2.5,2.5v9.729
			c0,3.584,2.916,6.5,6.5,6.5h2.92v16.367c-9.243-1.025-16.937-7.674-19.16-16.886c-0.32-1.32-1.69-2.16-3.02-1.84
			c-1.325,0.327-2.178,1.65-1.84,3.02c2.677,11.111,12.214,19.685,24.02,20.742v14.245h-9.213
			c-1.159-5.649-6.169-9.911-12.156-9.911c-6.842,0-12.409,5.566-12.409,12.409s5.566,12.409,12.409,12.409
			c5.985,0,10.994-4.26,12.155-9.907h9.214v20.453h-32.49c-5.79,0-10.5,4.71-10.5,10.5v10.631c-4.836,0.998-8.652,4.817-9.645,9.655
			H58.513c-1.159-5.649-6.169-9.911-12.156-9.911c-6.842,0-12.409,5.566-12.409,12.409s5.566,12.409,12.409,12.409
			c5.985,0,10.994-4.26,12.155-9.907h3.861v22.973H29.937c-5.79,0-10.5,4.71-10.5,10.5v14.337c-5.648,1.16-9.909,6.169-9.909,12.156
			c0,6.842,5.567,12.409,12.409,12.409s12.409-5.567,12.409-12.409c0-5.986-4.261-10.996-9.909-12.156v-14.337
			c0-3.033,2.467-5.5,5.5-5.5h32.437v54.458c-5.648,1.16-9.909,6.169-9.909,12.156c0,6.842,5.566,12.409,12.409,12.409
			s12.409-5.566,12.409-12.409c0-5.986-4.261-10.996-9.909-12.156v-54.458H99.81c3.033,0,5.5,2.467,5.5,5.5v14.337
			c-5.648,1.16-9.909,6.169-9.909,12.156c0,6.842,5.566,12.409,12.409,12.409s12.409-5.567,12.409-12.409
			c0-5.986-4.261-10.996-9.909-12.156v-14.337c0-5.79-4.71-10.5-10.5-10.5H67.373v-22.973h3.861
			c1.161,5.647,6.17,9.907,12.155,9.907c6.842,0,12.409-5.566,12.409-12.409c0-5.99-4.266-11.002-9.92-12.157v-10.626
			c0-3.03,2.47-5.49,5.5-5.5h32.49v28.306C118.22,145.291,113.959,150.301,113.959,156.287z M150.236,80.462
			c4.085,0,7.409,3.324,7.409,7.409s-3.324,7.409-7.409,7.409s-7.409-3.324-7.409-7.409S146.151,80.462,150.236,80.462z
			 M102.499,95.279c-4.085,0-7.409-3.324-7.409-7.409s3.324-7.409,7.409-7.409c4.071,0,7.384,3.302,7.407,7.368
			c0,0.014-0.004,0.028-0.004,0.042c0,0.014,0.004,0.027,0.004,0.041C109.882,91.978,106.569,95.279,102.499,95.279z
			 M29.345,206.576c0,4.085-3.324,7.409-7.409,7.409c-4.085,0-7.409-3.324-7.409-7.409c0-4.085,3.324-7.409,7.409-7.409
			C26.021,199.168,29.345,202.491,29.345,206.576z M72.282,241.197c0,4.085-3.324,7.409-7.409,7.409s-7.409-3.324-7.409-7.409
			s3.324-7.409,7.409-7.409S72.282,237.112,72.282,241.197z M115.218,206.576c0,4.085-3.324,7.409-7.409,7.409
			s-7.409-3.324-7.409-7.409c0-4.085,3.324-7.409,7.409-7.409S115.218,202.491,115.218,206.576z M46.357,151.518
			c-4.085,0-7.409-3.324-7.409-7.409s3.324-7.409,7.409-7.409c4.072,0,7.386,3.304,7.407,7.371c0,0.013-0.004,0.026-0.004,0.039
			c0,0.013,0.004,0.025,0.004,0.038C53.742,148.216,50.429,151.518,46.357,151.518z M90.797,144.109
			c0,4.085-3.324,7.409-7.409,7.409s-7.409-3.324-7.409-7.409s3.324-7.409,7.409-7.409S90.797,140.024,90.797,144.109z
			 M133.776,156.287c0,4.085-3.324,7.409-7.409,7.409s-7.409-3.324-7.409-7.409c0-4.085,3.324-7.409,7.409-7.409
			S133.776,152.202,133.776,156.287z"/>
		<circle cx="146.937" cy="113.325" r="2.5"/>
		<path d="M221.655,206.576c0,6.842,5.566,12.409,12.409,12.409s12.409-5.567,12.409-12.409c0-5.986-4.261-10.996-9.909-12.156
			v-14.337c0-5.79-4.71-10.5-10.5-10.5h-32.437v-22.973h3.86c1.161,5.647,6.17,9.907,12.155,9.907
			c6.842,0,12.409-5.566,12.409-12.409s-5.567-12.409-12.409-12.409c-5.987,0-10.997,4.261-12.156,9.911h-12.719
			c-0.994-4.843-4.817-8.666-9.66-9.658v-10.627c0-5.79-4.71-10.5-10.5-10.5h-7.67c-1.38,0-2.5,1.12-2.5,2.5
			c0,1.38,1.12,2.5,2.5,2.5h7.67c3.03,0.01,5.49,2.47,5.5,5.5v10.629c-5.646,1.162-9.904,6.17-9.904,12.154
			c0,6.842,5.566,12.409,12.409,12.409c5.985,0,10.994-4.26,12.155-9.907h3.861v22.973H156.19c-5.79,0-10.5,4.71-10.5,10.5v14.337
			c-5.648,1.16-9.909,6.169-9.909,12.156c0,6.842,5.566,12.409,12.409,12.409s12.409-5.567,12.409-12.409
			c0-5.986-4.261-10.996-9.909-12.156v-14.337c0-3.033,2.467-5.5,5.5-5.5h32.437v23.531c0,1.37,1.12,2.49,2.5,2.49
			s2.5-1.12,2.5-2.49v-23.531h32.437c3.033,0,5.5,2.467,5.5,5.5v14.337C225.916,195.581,221.655,200.59,221.655,206.576z
			 M209.643,136.7c4.085,0,7.409,3.324,7.409,7.409s-3.324,7.409-7.409,7.409c-4.085,0-7.409-3.324-7.409-7.409
			S205.558,136.7,209.643,136.7z M172.612,151.518c-4.085,0-7.409-3.324-7.409-7.409s3.324-7.409,7.409-7.409
			c4.072,0,7.386,3.304,7.407,7.371c0,0.013-0.004,0.026-0.004,0.039c0,0.013,0.004,0.025,0.004,0.038
			C179.997,148.216,176.683,151.518,172.612,151.518z M155.599,206.576c0,4.085-3.324,7.409-7.409,7.409s-7.409-3.324-7.409-7.409
			c0-4.085,3.324-7.409,7.409-7.409S155.599,202.491,155.599,206.576z M241.473,206.576c0,4.085-3.324,7.409-7.409,7.409
			s-7.409-3.324-7.409-7.409c0-4.085,3.324-7.409,7.409-7.409S241.473,202.491,241.473,206.576z"/>
		<path d="M191.127,210.615c1.38,0,2.5-1.13,2.5-2.5c0-1.38-1.12-2.51-2.5-2.51s-2.5,1.13-2.5,2.51
			C188.627,209.485,189.748,210.615,191.127,210.615z"/>
		<path d="M188.627,229.042c-5.648,1.16-9.909,6.169-9.909,12.156c0,6.842,5.566,12.409,12.409,12.409s12.409-5.566,12.409-12.409
			c0-5.986-4.261-10.996-9.909-12.156v-10.937c0-1.37-1.12-2.49-2.5-2.49s-2.5,1.12-2.5,2.49V229.042z M198.536,241.197
			c0,4.085-3.324,7.409-7.409,7.409s-7.409-3.324-7.409-7.409s3.324-7.409,7.409-7.409S198.536,237.112,198.536,241.197z"/>
		<path d="M99.757,39.265c-0.35,1.33,0.44,2.7,1.77,3.06c1.374,0.372,2.714-0.47,3.06-1.77c0.36-1.33-0.44-2.71-1.77-3.06
			C101.507,37.145,100.107,37.965,99.757,39.265z"/>
	</g>
</g>
</svg>
