<svg xmlns="http://www.w3.org/2000/svg" viewBox="0 0 64 64"><defs><style>.cls-1{fill:#dfe1ea;}.cls-2{fill:#adb2c7;}.cls-3{fill:#cdd2e1;}.cls-4{fill:#f6fafd;}.cls-5{fill:#bec3d2;}.cls-6{fill:#8dd5f6;}.cls-7{fill:#fff;}.cls-8{fill:#ffc247;}.cls-9{fill:#ffa426;}</style></defs><title>23-Website</title><g id="_23-Website" data-name="23-Website"><path class="cls-1" d="M63,11V61a2.006,2.006,0,0,1-2,2H3a2.006,2.006,0,0,1-2-2V11Z"/><path class="cls-2" d="M61,1a2.006,2.006,0,0,1,2,2v8H1V3A2.006,2.006,0,0,1,3,1Z"/><path class="cls-3" d="M39.6,21c-7.6,0-7.6-2-15.2-2s-7.6,2-15.2,2A26.743,26.743,0,0,1,1,19.844v8A26.743,26.743,0,0,0,9.2,29c7.6,0,7.6-2,15.2-2s7.6,2,15.2,2,7.6-2,15.2-2A26.787,26.787,0,0,1,63,28.157v-8A26.787,26.787,0,0,0,54.8,19C47.2,19,47.2,21,39.6,21Z"/><path class="cls-4" d="M1,11v8.844A26.743,26.743,0,0,0,9.2,21c7.6,0,7.6-2,15.2-2s7.6,2,15.2,2,7.6-2,15.2-2A26.787,26.787,0,0,1,63,20.157V11Z"/><rect class="cls-5" x="6" y="16" width="56" height="20" rx="1.083" ry="1.083"/><rect class="cls-5" x="15" y="38" width="14" height="11" rx="0.803" ry="0.803"/><rect class="cls-5" x="23" y="41" width="18" height="17" rx="0.763" ry="0.763"/><g id="_Group_" data-name="&lt;Group&gt;"><rect class="cls-6" x="43" y="38" width="16" height="6"/><polygon class="cls-7" points="38 39 38 55 22 55 38 39"/><polygon class="cls-1" points="28 45 28 39 38 39 22 55 22 45 28 45"/><polygon class="cls-7" points="28 39 28 45 22 45 12 45 28 29 28 33 28 39"/><polygon class="cls-1" points="28 29 12 45 12 33 12 29 28 29"/><polygon class="cls-8" points="59 15 59 33 28 33 28 29 12 29 12 33 5 33 5 15 59 15"/><path class="cls-9" d="M5,15v5.73A28.99,28.99,0,0,0,9.2,21c7.6,0,7.6-2,15.2-2s7.6,2,15.2,2,7.6-2,15.2-2a28.919,28.919,0,0,1,4.2.271V15Z"/><rect class="cls-7" x="43" y="38" width="6" height="6"/><rect class="cls-7" x="5" y="5" width="2" height="2"/><rect class="cls-7" x="14" y="5" width="45" height="2"/><path d="M61,0H3A3,3,0,0,0,0,3V61a3,3,0,0,0,3,3H61a3,3,0,0,0,3-3V3A3,3,0,0,0,61,0ZM3,2H61a1,1,0,0,1,1,1v7H2V3A1,1,0,0,1,3,2ZM61,62H3a1,1,0,0,1-1-1V12H62V61A1,1,0,0,1,61,62Z"/><rect x="9" y="5" width="2" height="2"/><path d="M59,14H5a1,1,0,0,0-1,1V33a1,1,0,0,0,1,1h6V45a1,1,0,0,0,1,1h9v9a1,1,0,0,0,1,1H38a1,1,0,0,0,1-1V39a1,1,0,0,0-1-1H29V34H59a1,1,0,0,0,1-1V15A1,1,0,0,0,59,14ZM13,42.586V30H25.586ZM27,31.414V44H14.414ZM24.414,54,37,41.414V54ZM35.586,40,23,52.586V46h5a1,1,0,0,0,1-1V40ZM58,32H29V29a1,1,0,0,0-1-1H12a1,1,0,0,0-1,1v3H6V16H58Z"/><path d="M59,37H43a1,1,0,0,0-1,1v6a1,1,0,0,0,1,1H59a1,1,0,0,0,1-1V38A1,1,0,0,0,59,37Zm-1,6H44V39H58Z"/><rect x="43" y="56" width="16" height="2"/><rect x="43" y="52" width="16" height="2"/><rect x="54" y="48" width="5" height="2"/><rect x="47" y="48" width="5" height="2"/></g></g></svg>