<?xml version="1.0" encoding="iso-8859-1"?>
<!-- Generator: Adobe Illustrator 19.0.0, SVG Export Plug-In . SVG Version: 6.00 Build 0)  -->
<svg xmlns="http://www.w3.org/2000/svg" xmlns:xlink="http://www.w3.org/1999/xlink" version="1.1" id="Layer_1" x="0px" y="0px" viewBox="0 0 512 512" style="enable-background:new 0 0 512 512;" xml:space="preserve">
<circle style="fill:#FFDC64;" cx="256" cy="256" r="247.409"/>
<path style="fill:#FFC850;" d="M290.362,443.848c-122.723,0-222.21-99.487-222.21-222.21c0-97.483,62.8-180.245,150.128-210.189  C99.543,29.612,8.591,132.184,8.591,256c0,136.64,110.77,247.409,247.409,247.409c123.817,0,226.388-90.953,244.552-209.69  C470.606,381.048,387.845,443.848,290.362,443.848z"/>
<g>
	<path style="fill:#FFF082;" d="M301.826,97.159c-0.796,0-1.61-0.108-2.416-0.326c-14.068-3.83-28.672-5.772-43.41-5.772   c-5.065,0-9.163-4.103-9.163-9.163c0-5.06,4.098-9.163,9.163-9.163c16.358,0,32.581,2.157,48.224,6.417   c4.886,1.329,7.767,6.367,6.434,11.248C309.548,94.474,305.852,97.159,301.826,97.159z"/>
	<path style="fill:#FFF082;" d="M429.145,246.846c-4.635,0-8.609-3.499-9.1-8.21c-5.262-50.229-34.139-96.184-77.252-122.921   c-4.295-2.667-5.619-8.313-2.953-12.613c2.667-4.291,8.313-5.633,12.618-2.957c47.893,29.701,79.973,80.761,85.808,136.586   c0.528,5.034-3.124,9.539-8.152,10.067C429.781,246.828,429.459,246.846,429.145,246.846z"/>
</g>
<path d="M437.019,74.98C388.668,26.629,324.38,0,256,0S123.332,26.629,74.981,74.98C26.629,123.332,0,187.62,0,256  s26.629,132.668,74.981,181.02C123.332,485.371,187.62,512,256,512s132.668-26.629,181.019-74.98  C485.371,388.668,512,324.38,512,256S485.371,123.332,437.019,74.98z M256,494.819C124.314,494.819,17.181,387.685,17.181,256  S124.314,17.181,256,17.181S494.819,124.315,494.819,256S387.686,494.819,256,494.819z"/>
<path d="M53.834,256c0-111.474,90.692-202.166,202.166-202.166c35.069,0,69.614,9.116,99.901,26.366  c4.124,2.348,9.368,0.911,11.716-3.214c2.348-4.122,0.908-9.368-3.214-11.716C331.531,46.55,294.046,36.653,256,36.653  C135.051,36.653,36.653,135.052,36.653,256c0,50.914,17.839,100.526,50.231,139.697c1.699,2.055,4.153,3.117,6.625,3.117  c1.929,0,3.868-0.646,5.469-1.97c3.656-3.024,4.17-8.438,1.147-12.094C70.275,348.65,53.834,302.926,53.834,256z"/>
<path d="M446.706,147.555c-2.35-4.122-7.598-5.56-11.716-3.211c-4.123,2.349-5.56,7.594-3.212,11.716  c17.263,30.295,26.388,64.853,26.388,99.94c0,111.474-90.692,202.166-202.166,202.166c-47.08,0-92.917-16.534-129.071-46.556  c-3.65-3.031-9.066-2.529-12.097,1.121c-3.031,3.65-2.53,9.066,1.121,12.098c39.23,32.577,88.967,50.518,140.046,50.518  c120.949,0,219.347-98.399,219.347-219.347C475.347,217.937,465.444,180.436,446.706,147.555z"/>
<path d="M387.867,102.756c7.632,6.574,14.831,13.775,21.4,21.403c1.699,1.974,4.099,2.985,6.514,2.985  c1.985,0,3.98-0.684,5.602-2.08c3.595-3.096,4.001-8.52,0.905-12.115c-7.123-8.272-14.93-16.082-23.207-23.211  c-3.592-3.095-9.017-2.693-12.115,0.903C383.868,94.235,384.271,99.659,387.867,102.756z"/>
<path d="M315.566,174.103c-33.076,0-58.985,17.86-58.985,40.662c0,29.863,26.723,40.434,56.494,49.457  c33.532,10.162,44.294,18.183,44.294,33.013c0,12.508-19.535,23.481-41.803,23.481c-21.983,0-38.808-9.62-42.373-18.921  c-1.699-4.429-6.663-6.643-11.097-4.946c-4.429,1.699-6.643,6.666-4.945,11.097c6.761,17.635,30.783,29.95,58.416,29.95  c33.074,0.001,58.983-17.859,58.983-40.661c0-29.862-26.722-40.434-56.493-49.457c-33.531-10.162-44.295-18.183-44.295-33.013  c0-12.508,19.535-23.481,41.804-23.481c21.982,0,38.807,9.62,42.372,18.921c1.699,4.43,6.664,6.642,11.097,4.946  c4.429-1.699,6.643-6.666,4.945-11.097C367.22,186.418,343.198,174.103,315.566,174.103z"/>
<path d="M173.538,320.716c-11.436,0-22.42-4.197-30.931-11.816c-3.535-3.166-8.965-2.865-12.131,0.669  c-3.165,3.535-2.865,8.966,0.67,12.13c11.666,10.445,26.72,16.197,42.392,16.197c35.053,0,63.57-28.517,63.57-63.57v-91.633  c0-4.744-3.845-8.591-8.591-8.591h-27.49c-4.745,0-8.591,3.846-8.591,8.591c0,4.744,3.845,8.591,8.591,8.591h18.899v83.043  C219.927,299.906,199.118,320.716,173.538,320.716z"/>
<g>
</g>
<g>
</g>
<g>
</g>
<g>
</g>
<g>
</g>
<g>
</g>
<g>
</g>
<g>
</g>
<g>
</g>
<g>
</g>
<g>
</g>
<g>
</g>
<g>
</g>
<g>
</g>
<g>
</g>
</svg>
