<svg xmlns="http://www.w3.org/2000/svg" viewBox="0 0 64 64"><defs><style>.cls-1{fill:#dfe1ea;}.cls-2{fill:#adb2c7;}.cls-3{fill:#cdd2e1;}.cls-4{fill:#f6fafd;}.cls-5{fill:#fff;}.cls-6{fill:#ff636e;}</style></defs><title>92-Html Code</title><g id="_92-Html_Code" data-name="92-Html Code"><path class="cls-1" d="M63,11V61a2.006,2.006,0,0,1-2,2H3a2.006,2.006,0,0,1-2-2V11Z"/><path class="cls-2" d="M61,1a2.006,2.006,0,0,1,2,2v8H1V3A2.006,2.006,0,0,1,3,1Z"/><path class="cls-3" d="M39.6,21c-7.6,0-7.6-2-15.2-2s-7.6,2-15.2,2A26.743,26.743,0,0,1,1,19.844v8A26.743,26.743,0,0,0,9.2,29c7.6,0,7.6-2,15.2-2s7.6,2,15.2,2,7.6-2,15.2-2A26.787,26.787,0,0,1,63,28.157v-8A26.787,26.787,0,0,0,54.8,19C47.2,19,47.2,21,39.6,21Z"/><path class="cls-4" d="M1,11v8.844A26.743,26.743,0,0,0,9.2,21c7.6,0,7.6-2,15.2-2s7.6,2,15.2,2,7.6-2,15.2-2A26.787,26.787,0,0,1,63,20.157V11Z"/><rect class="cls-2" x="6" y="23" width="22" height="23" rx="1.576" ry="1.576"/><rect class="cls-5" x="5" y="29" width="20" height="14"/><rect class="cls-6" x="5" y="21" width="20" height="8"/><rect class="cls-1" x="8" y="32" width="14" height="8"/><rect class="cls-5" x="5" y="5" width="2" height="2"/><rect class="cls-5" x="14" y="5" width="45" height="2"/><rect class="cls-5" x="8" y="24" width="2" height="2"/><rect class="cls-5" x="12" y="24" width="2" height="2"/><polygon points="29 41 25 41 25 35 23 35 23 49 25 49 25 43 29 43 29 49 31 49 31 35 29 35 29 41"/><polygon points="33 37 36 37 36 49 38 49 38 37 41 37 41 35 33 35 33 37"/><path d="M50.178,35.016a1,1,0,0,0-1.115.632L47,41.152l-2.063-5.5A1,1,0,0,0,43,36V49h2V41.515l1.063,2.837a1,1,0,0,0,1.874,0L49,41.515V49h2V36A1,1,0,0,0,50.178,35.016Z"/><path d="M55,46V35H53V46a2.916,2.916,0,0,0,3,3h4V47H56A.915.915,0,0,1,55,46Z"/><path d="M61,0H3A3,3,0,0,0,0,3V61a3,3,0,0,0,3,3H61a3,3,0,0,0,3-3V3A3,3,0,0,0,61,0ZM3,2H61a1,1,0,0,1,1,1v7H2V3A1,1,0,0,1,3,2ZM61,62H3a1,1,0,0,1-1-1V12H62V61A1,1,0,0,1,61,62Z"/><rect x="9" y="5" width="2" height="2"/><path d="M6,30H24v1h2V21a1,1,0,0,0-1-1H5a1,1,0,0,0-1,1V43a1,1,0,0,0,1,1H18V42H6Zm18-8v6H6V22Z"/><path d="M12.293,32.293l-3,3a1,1,0,0,0,0,1.414l3,3,1.414-1.414L11.414,36l2.293-2.293Z"/><path d="M17.707,32.293l-1.414,1.414L18.586,36l-2.293,2.293,1.414,1.414,3-3a1,1,0,0,0,0-1.414Z"/><rect x="29" y="29" width="11" height="2"/><rect x="29" y="25" width="6" height="2"/></g></svg>