<?xml version="1.0" encoding="UTF-8"?>
<!DOCTYPE svg PUBLIC "-//W3C//DTD SVG 1.1//EN" "http://www.w3.org/Graphics/SVG/1.1/DTD/svg11.dtd">
<!-- Creator: CorelDRAW -->
<svg xmlns="http://www.w3.org/2000/svg" xml:space="preserve" width="2048px" height="2048px" style="shape-rendering:geometricPrecision; text-rendering:geometricPrecision; image-rendering:optimizeQuality; fill-rule:evenodd; clip-rule:evenodd"
viewBox="0 0 2048 2048"
 xmlns:xlink="http://www.w3.org/1999/xlink">
 <defs>
  <style type="text/css">
   <![CDATA[
    .fil9 {fill:none}
    .fil4 {fill:#202020}
    .fil1 {fill:#717171}
    .fil3 {fill:gray}
    .fil6 {fill:#A0A0A0}
    .fil7 {fill:#B4B4B5}
    .fil8 {fill:#BCBCBC}
    .fil5 {fill:#C4C4C4}
    .fil2 {fill:#C5C5C5}
    .fil0 {fill:#D6D6D6}
   ]]>
  </style>
 </defs>
 <g id="Layer_x0020_1">
  <metadata id="CorelCorpID_0Corel-Layer"/>
  <g id="_316057928">
   <g>
    <path id="_316060496" class="fil0" d="M263.457 1376.1c-0.725197,-54.5729 -6.43819,-154.719 -6.51142,-191.009l80.1497 -0.159449c0.0271654,18.5858 -12.1854,107.684 -7.48229,172.578 0.347244,4.79055 0.698032,11.7059 1.04882,18.5906l-67.2048 0z"/>
    <path id="_316060544" class="fil1" d="M256.982 1091.01c0.179528,75.5505 -0.983859,95.9859 -0.983859,95.9859l81.9721 0.751182 16.676 -76.6666c52.8615,-243.026 -97.806,-78.7855 -97.6642,-20.0705z"/>
    <path id="_316060736" class="fil0" d="M772.703 837.985c-17.6823,22.5118 -54.8115,49.5555 -87.3886,82.0028l56.5619 56.7874c33.6225,-28.3217 76.2957,-82.069 98.5914,-105.389l-67.7646 -33.4016z"/>
    <path id="_316060376" class="fil1" d="M618.82 986.534c53.5489,-53.2961 67.1764,-68.569 67.1764,-68.569l58.4941 57.4323 -42.4193 66.0024c-134.466,209.224 -124.87,-13.4492 -83.2512,-54.8658z"/>
    <path id="_316060568" class="fil0" d="M924.39 713.451c2.98701,-5.00079 60.0993,-48.287 92.5099,-40.6465 38.054,-1.79646 44.3894,5.62087 36.9378,10.0618 -7.45512,4.44331 3.56575,1.44921 1.89567,6.89292 -0.96378,3.15118 -6.42756,4.77284 -9.21024,5.11418 -3.79252,0.464174 1.89567,2.94331 1.41378,5.63977 -0.487796,2.69882 -4.45276,5.75552 -11.0091,7.9004 -5.7567,1.8874 -4.64528,2.64213 -2.85355,3.20315 2.18386,0.696851 2.44488,5.19449 -8.61024,9.92481 -15.9366,6.81851 -27.8941,4.07481 -38.0398,10.0453 -28.6217,16.8425 -46.0111,12.7512 -62.4745,10.748 -16.4587,-1.99843 -0.559843,-28.8839 -0.559843,-28.8839z"/>
    <path id="_316060160" class="fil0" d="M950.57 746.098c8.40001,-7.19174 10.337,-15.4866 9.91418,-17.7862 -2.84528,-15.4547 -30.4677,-18.4536 -30.4677,-18.4536 -2.32559,1.24606 -4.69725,2.55 -7.10079,3.92599 -53.9292,36.2351 -89.1698,67.1457 -135.03,107.802 -63.3886,56.7119 17.7862,77.9611 52.5815,49.8012 42.4229,-34.3323 60.9296,-83.1934 110.102,-125.289z"/>
    <path id="_316059656" class="fil2" d="M482.06 1038.27c59.2654,0 32.0315,10.6831 61.8272,-28.1221 -40.6607,-6.24922 -13.4256,-25.4374 -20.9681,-49.3335 -7.68308,-24.3189 0,-56.3115 0,-56.3115l-81.7134 -0.0011811c0,0 7.67835,31.9937 0,56.3126 -7.54371,23.8961 -9.98859,43.0855 -50.6528,49.3335 29.7957,38.804 32.2465,28.1221 91.5072,28.1221z"/>
    <path id="_316059632" class="fil3" d="M355.316 980.272c33.6,-7.17638 63.9898,-1.87323 85.4694,-14.2772 2.86654,-1.65591 22.7008,35.9374 40.9122,35.9374 17.2288,0 30.8445,-36.9744 49.2213,-34.8473 23.5595,2.72599 49.3996,7.20119 80.9186,13.187 5.19567,0.98504 11.8028,4.80118 9.61772,9.61654 -22.0819,48.6402 0,94.0572 0,145.918l0 240.291 -275.756 0 0 -239.915c0,-43.2449 28.9264,-82.3949 0,-146.294 -2.18268,-4.8189 4.44449,-8.51103 9.61654,-9.61654z"/>
    <path id="_316059776" class="fil2" d="M408.206 809.978c0,0 -30.3827,-24.613 -43.7457,0 -13.3677,24.6083 37.6772,68.4686 53.478,60.9827 15.7961,-7.48347 -9.73229,-60.9827 -9.73229,-60.9827z"/>
    <path id="_316059704" class="fil2" d="M555.912 809.978c0,0 30.3862,-24.613 43.7528,0 13.3665,24.6083 -37.6784,68.4686 -53.4804,60.9827 -15.7949,-7.48347 9.72757,-60.9827 9.72757,-60.9827z"/>
    <path id="_316059584" class="fil0" d="M571.837 754.785c-2.46496,-68.8123 -75.8434,-68.8737 -89.7745,-68.8737 -13.9335,0 -87.3107,0.0614174 -89.7816,68.8737 -2.46969,68.8134 1.23543,118.758 17.2784,140.948 15.8705,21.9709 53.7792,33.6083 72.5032,33.6083 18.7205,0 56.6256,-11.6374 72.5044,-33.6083 16.0311,-22.1906 19.7421,-72.1347 17.2701,-140.948z"/>
    <path id="_316059440" class="fil1" d="M442.628 955.448c0,0 12.9059,37.2591 39.4347,46.2225 0,0 -27.3272,10.2354 -39.4347,38.3918 0,0 -34.1634,-55.1469 -31.454,-65.328 2.71063,-10.1799 16.6831,-18.1547 31.454,-19.2862z"/>
    <path id="_316059416" class="fil1" d="M521.493 955.448c0,0 -12.9059,37.2591 -39.43,46.2225 0,0 27.326,10.2354 39.43,38.3918 0,0 34.1646,-55.1469 31.4575,-65.328 -2.71299,-10.1799 -16.6819,-18.1547 -31.4575,-19.2862z"/>
    <path id="_316059848" class="fil4" d="M407.931 838.484c0,0 -6.95315,-52.1481 8.11182,-68.0823 0,0 63.1583,38.8217 97.0548,-4.9252 0,0 2.02914,-21.2941 14.6315,-22.1634 0,0 17.6717,7.09843 26.9421,52.5851l-0.28937 43.1681 16.6453 -32.1603c0,0 24.7855,-64.0276 -9.40276,-88.0749 0,0 1.74095,-47.5146 -95.0268,-42.5882 0,0 -60.2623,-3.47717 -78.2245,64.317 -7.89095,30.1547 -2.37874,52.8355 2.60433,65.2465l0.0153543 0.376772 0.67441 1.28858c2.52047,5.88308 4.73032,9.02009 4.73741,9.03072l11.5264 21.9815zm-11.5264 -21.9803l0 -0.0011811"/>
   </g>
   <path id="_316059032" class="fil5" d="M1784.54 1376.1c0.725197,-54.5729 6.43819,-154.719 6.51142,-191.009l-80.1497 -0.159449c-0.0271654,18.5858 12.1854,107.684 7.48229,172.578 -0.347244,4.79055 -0.698032,11.7059 -1.04882,18.5906l67.2048 0z"/>
   <path id="_316058768" class="fil6" d="M1791.02 1091.01c-0.179528,75.5505 0.983859,95.9859 0.983859,95.9859l-81.9721 0.751182 -16.676 -76.6666c-52.8615,-243.026 97.806,-78.7855 97.6642,-20.0705z"/>
   <path id="_316058912" class="fil5" d="M1275.3 837.985c17.6823,22.5118 54.8115,49.5555 87.3875,82.0028l-56.5607 56.7874c-33.6225,-28.3217 -76.2957,-82.069 -98.5914,-105.389l67.7646 -33.4016z"/>
   <path id="_316058528" class="fil6" d="M1429.18 986.534c-53.5489,-53.2961 -67.1764,-68.569 -67.1764,-68.569l-58.4941 57.4323 42.4193 66.0024c134.466,209.224 124.87,-13.4492 83.2512,-54.8658z"/>
   <path id="_316059008" class="fil5" d="M1123.61 713.451c-2.98701,-5.00079 -60.0993,-48.287 -92.5099,-40.6465 -38.054,-1.79646 -44.3894,5.62087 -36.9378,10.0618 7.45512,4.44331 -3.56575,1.44921 -1.89567,6.89292 0.96378,3.15118 6.42756,4.77284 9.21024,5.11418 3.79252,0.464174 -1.89567,2.94331 -1.41378,5.63977 0.487796,2.69882 4.45276,5.75552 11.0091,7.9004 5.7567,1.8874 4.6441,2.64213 2.85355,3.20315 -2.18386,0.696851 -2.44488,5.19449 8.61024,9.92481 15.9366,6.81851 27.8941,4.07481 38.0398,10.0453 28.6217,16.8425 46.0111,12.7512 62.4745,10.748 16.4587,-1.99843 0.559843,-28.8839 0.559843,-28.8839z"/>
   <path id="_316059248" class="fil5" d="M1097.43 746.098c-8.40001,-7.19174 -10.337,-15.4866 -9.91418,-17.7862 2.84528,-15.4547 30.4677,-18.4536 30.4677,-18.4536 2.32559,1.24606 4.69725,2.55 7.10079,3.92599 53.9292,36.2351 89.1698,67.1457 135.03,107.802 63.3886,56.7119 -17.7874,77.9611 -52.5815,49.8012 -42.4229,-34.3323 -60.9296,-83.1934 -110.102,-125.289z"/>
   <path id="_316059152" class="fil7" d="M1565.94 1038.27c-59.2642,0 -32.0303,10.6831 -61.826,-28.1221 40.6607,-6.24922 13.4256,-25.4374 20.9681,-49.3335 7.68308,-24.3189 0,-56.3115 0,-56.3115l81.7134 -0.0011811c0,0 -7.67835,31.9937 0,56.3126 7.54371,23.8961 9.98859,43.0855 50.6528,49.3335 -29.7957,38.804 -32.2465,28.1221 -91.5083,28.1221z"/>
   <path id="_316059128" class="fil8" d="M1692.68 980.272c-33.6,-7.17638 -63.9898,-1.87323 -85.4694,-14.2772 -2.86654,-1.65591 -22.7008,35.9374 -40.9122,35.9374 -17.2288,0 -30.8445,-36.9744 -49.2213,-34.8473 -23.5595,2.72599 -49.3996,7.20119 -80.9186,13.187 -5.19685,0.98504 -11.8028,4.80118 -9.61772,9.61654 22.0819,48.6402 0,94.0572 0,145.918l0 240.291 275.756 0 0 -239.915c0,-43.2449 -28.9264,-82.3949 0,-146.294 2.18268,-4.8189 -4.44449,-8.51103 -9.61654,-9.61654z"/>
   <path id="_316058888" class="fil7" d="M1639.79 809.978c0,0 30.3827,-24.613 43.7457,0 13.3677,24.6083 -37.6772,68.4686 -53.478,60.9827 -15.7961,-7.48347 9.73229,-60.9827 9.73229,-60.9827z"/>
   <path id="_316058192" class="fil7" d="M1492.09 809.978c0,0 -30.3862,-24.613 -43.7528,0 -13.3665,24.6083 37.6784,68.4686 53.4804,60.9827 15.7949,-7.48347 -9.72757,-60.9827 -9.72757,-60.9827z"/>
   <path id="_316057808" class="fil5" d="M1476.16 754.785c2.46496,-68.8123 75.8434,-68.8737 89.7745,-68.8737 13.9323,0 87.3107,0.0614174 89.7816,68.8737 2.46969,68.8134 -1.23543,118.758 -17.2784,140.948 -15.8705,21.9709 -53.7792,33.6083 -72.5032,33.6083 -18.7205,0 -56.6256,-11.6374 -72.5044,-33.6083 -16.0311,-22.1906 -19.7421,-72.1347 -17.2701,-140.948z"/>
   <path id="_316058504" class="fil6" d="M1605.37 955.448c0,0 -12.9071,37.2591 -39.4347,46.2225 0,0 27.3272,10.2354 39.4347,38.3918 0,0 34.1634,-55.1469 31.454,-65.328 -2.71063,-10.1799 -16.6831,-18.1547 -31.454,-19.2862z"/>
   <path id="_316058456" class="fil6" d="M1526.51 955.448c0,0 12.9059,37.2591 39.43,46.2225 0,0 -27.326,10.2354 -39.43,38.3918 0,0 -34.1646,-55.1469 -31.4575,-65.328 2.71299,-10.1799 16.6819,-18.1547 31.4575,-19.2862z"/>
   <path id="_316058408" class="fil4" d="M1640.07 838.484c0,0 6.95315,-52.1481 -8.11182,-68.0823 0,0 -63.1583,38.8217 -97.0548,-4.9252 0,0 -2.02914,-21.2941 -14.6315,-22.1634 0,0 -17.6717,7.09843 -26.9421,52.5851l0.28937 43.1681 -16.6453 -32.1603c0,0 -24.7855,-64.0276 9.40276,-88.0749 0,0 -1.74095,-47.5146 95.0268,-42.5882 0,0 60.2623,-3.47717 78.2245,64.317 7.89095,30.1547 2.37874,52.8355 -2.60433,65.2465l-0.0153543 0.376772 -0.67441 1.28858c-2.52047,5.88308 -4.73032,9.02009 -4.73741,9.03072l-11.5264 21.9815zm11.5264 -21.9803l0 -0.0011811"/>
  </g>
 </g>
 <rect class="fil9" width="2048" height="2048"/>
</svg>
