<svg xmlns="http://www.w3.org/2000/svg" viewBox="0 0 64 64"><defs><style>.cls-1{fill:#8dd5f6;}.cls-2{fill:#ffe4c2;}.cls-3{fill:#ffc247;}.cls-4{fill:#dfe1ea;}.cls-5{fill:#bec3d2;}.cls-6{fill:#adb2c7;}.cls-7{fill:#ff636e;}.cls-8{fill:#ffa426;}.cls-9{fill:#ff475a;}.cls-10{fill:#fc979e;}.cls-11{fill:#fff;}</style></defs><title>58-Css Code</title><g id="_58-Css_Code" data-name="58-Css Code"><polygon class="cls-1" points="13 54 13 61 11 63 7 63 5 61 5 54 13 54"/><polygon class="cls-2" points="9 1 13 9 9 8 5 9 9 1"/><polygon class="cls-3" points="13 9 13 54 5 54 5 9 9 8 13 9"/><path class="cls-4" d="M63,3V61a2.006,2.006,0,0,1-2,2H19a2.006,2.006,0,0,1-2-2V3a2.006,2.006,0,0,1,2-2h4V31l5-3,5,3V1H61A2.006,2.006,0,0,1,63,3Z"/><path class="cls-5" d="M46.6,34c-7.6,0-7.6-2-15.2-2C24.08,32,23.785,33.847,17,33.987V61a2.006,2.006,0,0,0,2,2H61a2.006,2.006,0,0,0,2-2V32.022c-.383-.012-.773-.022-1.2-.022C54.2,32,54.2,34,46.6,34Z"/><path class="cls-6" d="M36,1.561V33.01a.561.561,0,0,1-.849.481l-3.863-2.318a.561.561,0,0,0-.576,0l-3.863,2.318A.561.561,0,0,1,26,33.01V1.561A.561.561,0,0,1,26.561,1h8.878A.561.561,0,0,1,36,1.561Z"/><polygon class="cls-7" points="33 1 33 31 28 28 23 31 23 1 33 1"/><path class="cls-8" d="M9,8,5,9v3.094c3.612.277,5.111,1.111,8,1.579V9Z"/><path class="cls-9" d="M28.394,4A26.628,26.628,0,0,0,23,4.471v7A26.628,26.628,0,0,1,28.394,11,28.241,28.241,0,0,1,33,11.329v-7A28.241,28.241,0,0,0,28.394,4Z"/><path class="cls-10" d="M33,4.329V1H23V4.471A26.628,26.628,0,0,1,28.394,4,28.241,28.241,0,0,1,33,4.329Z"/><rect x="8" y="12" width="2" height="39"/><path d="M13.9,8.553l-4-8a1.042,1.042,0,0,0-1.79,0l-4,8,.012,0A.983.983,0,0,0,4,9V56H2V34H0V56a1.959,1.959,0,0,0,2,2H4v3a1,1,0,0,0,.293.707l2,2A1,1,0,0,0,7,64h4a1,1,0,0,0,.707-.293l2-2A1,1,0,0,0,14,61V9a.983.983,0,0,0-.117-.442ZM9,3.236,11.133,7.5,9.243,7.03a.976.976,0,0,0-.486,0L6.867,7.5Zm3,57.35L10.586,62H7.414L6,60.586V55h6ZM12,53H6V9.781l3-.75,3,.75Z"/><path d="M61,0H19a3,3,0,0,0-3,3V61a3,3,0,0,0,3,3H61a3,3,0,0,0,3-3V3A3,3,0,0,0,61,0ZM24,2h8V29.233l-3.485-2.09a1,1,0,0,0-1.03,0L24,29.233ZM62,61a1,1,0,0,1-1,1H19a1,1,0,0,1-1-1V3a1,1,0,0,1,1-1h3V31a1,1,0,0,0,1.515.857L28,29.166l4.485,2.691A1,1,0,0,0,34,31V2H61a1,1,0,0,1,1,1Z"/><path d="M58,16a.811.811,0,0,1-.71-.29c-.61-.743-.472-2.689-.31-3.516A1,1,0,0,0,56,11H54v2h.865a5.866,5.866,0,0,0,.877,3.977A2.717,2.717,0,0,0,57,17.846v.308a2.717,2.717,0,0,0-1.258.869A5.866,5.866,0,0,0,54.865,23H54v2h2a1,1,0,0,0,.98-1.194c-.162-.827-.3-2.773.31-3.516A.811.811,0,0,1,58,20a1,1,0,0,0,1-1V17A1,1,0,0,0,58,16Z"/><path d="M39.228,11.365a1,1,0,0,0-.208.829c.162.827.3,2.773-.31,3.516A.811.811,0,0,1,38,16a1,1,0,0,0-1,1v2a1,1,0,0,0,1,1,.811.811,0,0,1,.71.29c.61.743.472,2.689.31,3.516A1,1,0,0,0,40,25h2V23h-.865a5.866,5.866,0,0,0-.877-3.977A2.717,2.717,0,0,0,39,18.154v-.308a2.717,2.717,0,0,0,1.258-.869A5.866,5.866,0,0,0,41.135,13H42V11H40A1,1,0,0,0,39.228,11.365Z"/><rect x="43" y="17" width="2" height="2"/><rect x="51" y="17" width="2" height="2"/><rect x="47" y="17" width="2" height="2"/><path class="cls-11" d="M52,45a3,3,0,1,1,3-3h2a5,5,0,1,0-5,5,3,3,0,1,1-3,3H47a5,5,0,1,0,5-5Z"/><path class="cls-11" d="M40,39a3,3,0,0,1,3,3h2a5,5,0,1,0-5,5,3,3,0,1,1-3,3H35a5,5,0,1,0,5-5,3,3,0,0,1,0-6Z"/><path class="cls-11" d="M28,39a3,3,0,0,1,3,3h2a5,5,0,0,0-10,0v8a5,5,0,0,0,10,0H31a3,3,0,0,1-6,0V42A3,3,0,0,1,28,39Z"/></g></svg>