<svg id="artwork" xmlns="http://www.w3.org/2000/svg" viewBox="0 0 512 512"><title>Presentation</title><g id="Presentation"><path d="M197.46,209.24,268.7,167,259,146.48l-65.7,31.25L135,160.66H79.35c-23.31,0-42.57,15.22-42.57,54.09v81.64a13.43,13.43,0,0,0,13.43,13.43H156.13a13.43,13.43,0,0,0,13.43-13.43V219Z" style="fill:#fff"/><path d="M156.45,449.19V312.06H59.8V449a16,16,0,0,0-14.71,15.9v5.43H169.87v-5.43A16,16,0,0,0,156.45,449.19Z" style="fill:#c6d0dc"/><path d="M169.87,470.36H45.09v-5.43a16,16,0,0,1,16-16H153.9a16,16,0,0,1,16,16Z" style="fill:#fff"/><circle cx="107.48" cy="123.33" r="37.33" transform="translate(-55.73 112.12) rotate(-45)" style="fill:#f5f3f1"/><polygon points="107.48 206.8 129.8 160.66 85.16 160.66 107.48 206.8" style="fill:#f7c648"/><path d="M451.69,309.77V281.66H225.84v28.11H352.17v33.76a20.23,20.23,0,1,0,13.57,0V309.77Zm-92.74,61a8.23,8.23,0,1,1,8.23-8.23A8.24,8.24,0,0,1,359,370.79Z" style="fill:#c6d0dc"/><circle cx="338.77" cy="358.05" r="14.65" transform="translate(-68.72 635.39) rotate(-80.82)" style="fill:#fabb1e"/><rect x="204.74" y="259.82" width="268.05" height="21.84" style="fill:#59aee4"/><rect x="225.84" y="86.02" width="225.85" height="173.8" style="fill:#fff"/><rect x="303.52" y="177.36" width="25.57" height="56.91" style="fill:#e56e4e"/><rect x="350.17" y="154.68" width="25.57" height="79.59" style="fill:#e56e4e"/><rect x="397.85" y="136.24" width="25.57" height="98.36" style="fill:#f7c648"/><rect x="256.88" y="195.23" width="25.57" height="39.04" style="fill:#e56e4e"/><path d="M297.52,240.27h37.57V169.88H297.52Zm12-58.39h13.57v46.39H309.52Z"/><path d="M344.17,149.66v90.61h37.57V149.66Zm25.57,78.61H356.17V161.66h13.57Z"/><path d="M391.85,129.45V240.53h37.57V129.45Zm25.57,99.08H403.85V141.45h13.57Z"/><rect x="286.25" y="104.51" width="46.35" height="12"/><rect x="286.25" y="122.31" width="46.35" height="12"/><rect x="286.25" y="140.11" width="46.35" height="12"/><path d="M250.88,240.27h37.56v-51H250.88Zm12-39h13.56v27H262.88Z"/><path d="M457.69,253.82V80H219.84v61.65h12V92H445.69v161.8H231.84V214.75h-12v39.07h-21.1v33.84h134v50.63a20.65,20.65,0,1,0,12,0V287.66h134V253.82ZM347.42,358.05a8.65,8.65,0,1,1-8.65-8.65A8.66,8.66,0,0,1,347.42,358.05Zm119.37-82.39h-256v-9.84H466.79Z"/><path d="M162.46,444.44V315.05a19.46,19.46,0,0,0,14.06-18.66V223.26L201,214.7l76.47-45.39-14.67-30.83-69,32.85-56.48-16.54a43.33,43.33,0,1,0-59.57-.07c-28.82,1.28-45.92,23.51-45.92,60v81.64a19.45,19.45,0,0,0,19.43,19.43H53.8V444.44a22,22,0,0,0-14,19.92H26v12H478.33v-12H176.5A22,22,0,0,0,162.46,444.44ZM76.15,123.33a31.33,31.33,0,1,1,31.33,31.33A31.37,31.37,0,0,1,76.15,123.33Zm45.76,43.33L107.8,192,95.35,166.66ZM51.17,303.82a7.44,7.44,0,0,1-7.43-7.43V214.75c0-31,13-48.09,36.57-48.09H82l25.17,51.18,28.41-51,59.17,17.34,62.35-29.67,4.81,10.11-66,39.19-31.35,11v81.65a7.45,7.45,0,0,1-7.44,7.43h-43.6v-80.7h-12v80.7H70.85V214.75h-12v89.07H51.17Zm50.31,160.54H51.75a10,10,0,0,1,10-9.4h39.77Zm0-21.4H65.8V315.82h84.66V443h-37V343.4h-12Zm12,21.4V455h41.07a10,10,0,0,1,9.95,9.4Z"/></g></svg>