<?xml version="1.0" encoding="utf-8"?>
<!-- Generator: Adobe Illustrator 22.1.0, SVG Export Plug-In . SVG Version: 6.00 Build 0)  -->
<svg version="1.1" id="Layer_1" xmlns="http://www.w3.org/2000/svg" xmlns:xlink="http://www.w3.org/1999/xlink" x="0px" y="0px"
	 viewBox="0 0 256 256" style="enable-background:new 0 0 256 256;" xml:space="preserve">
<style type="text/css">
	.st0{fill:#231F20;}
	.st1{fill:#FFEFE4;}
	.st2{fill:#69EBFC;}
	.st3{fill:#5FD4E3;}
	.st4{fill:#A1F1FC;}
	.st5{fill:#D476E2;}
	.st6{fill:#B665C2;}
	.st7{fill:#EA82FA;}
	.st8{fill:#FFF7F2;}
	.st9{fill:#FF8354;}
	.st10{fill:#FFA172;}
	.st11{fill:#6770E6;}
	.st12{fill:#5861C7;}
	.st13{fill:#E0734A;}
	.st14{fill:#EDD4C2;}
	.st15{fill:#CC6944;}
	.st16{fill:#858EFF;}
	.st17{fill:#C76642;}
	.st18{fill:#FFFFFF;}
	.st19{fill:#FFDEC7;}
	.st20{fill:#4E56B0;}
	.st21{fill:#94529E;}
	.st22{fill:#41B6C5;}
	.st23{fill:#9847A4;}
	.st24{fill:#C2552C;}
	.st25{fill:#CFB6A4;}
</style>
<g>
	<path class="st1" d="M229.935,256H26.065C11.67,256,0,244.33,0,229.935V26.065C0,11.67,11.67,0,26.065,0h203.87
		C244.33,0,256,11.67,256,26.065v203.87C256,244.33,244.33,256,229.935,256z"/>
	<path class="st14" d="M229.935,249H26.065C11.67,249,0,237.33,0,222.935v7C0,244.33,11.67,256,26.065,256h203.87
		C244.33,256,256,244.33,256,229.935v-7C256,237.33,244.33,249,229.935,249z"/>
	<path class="st2" d="M229.935,0H26.065C11.67,0,0,11.67,0,26.065V40h256V26.065C256,11.67,244.33,0,229.935,0z"/>
	<path class="st4" d="M229.935,0H26.065C11.67,0,0,11.67,0,26.065v7C0,18.67,11.67,7,26.065,7h203.87C244.33,7,256,18.67,256,33.065
		v-7C256,11.67,244.33,0,229.935,0z"/>
	<circle class="st9" cx="35" cy="20" r="9"/>
	<circle class="st5" cx="68.5" cy="20" r="9"/>
	<circle class="st11" cx="102" cy="20" r="9"/>
	<path class="st5" d="M34,60h188c4.418,0,8,3.582,8,8v52c0,4.418-3.582,8-8,8H34c-4.418,0-8-3.582-8-8V68C26,63.582,29.582,60,34,60
		z"/>
	<path class="st9" d="M34,148h32c4.418,0,8,3.582,8,8v32c0,4.418-3.582,8-8,8H34c-4.418,0-8-3.582-8-8v-32
		C26,151.582,29.582,148,34,148z"/>
	<path class="st11" d="M112,148h32c4.418,0,8,3.582,8,8v32c0,4.418-3.582,8-8,8h-32c-4.418,0-8-3.582-8-8v-32
		C104,151.582,107.582,148,112,148z"/>
	<path class="st9" d="M190,148h32c4.418,0,8,3.582,8,8v32c0,4.418-3.582,8-8,8h-32c-4.418,0-8-3.582-8-8v-32
		C182,151.582,185.582,148,190,148z"/>
	<path class="st14" d="M34,205.995h32c4.418,0,8,3.582,8,8v0c0,4.418-3.582,8-8,8H34c-4.418,0-8-3.582-8-8v0
		C26,209.577,29.582,205.995,34,205.995z"/>
	<path class="st14" d="M112,205.995h32c4.418,0,8,3.582,8,8v0c0,4.418-3.582,8-8,8h-32c-4.418,0-8-3.582-8-8v0
		C104,209.577,107.582,205.995,112,205.995z"/>
	<path class="st2" d="M112,101h32c4.418,0,8,3.582,8,8v0c0,4.418-3.582,8-8,8h-32c-4.418,0-8-3.582-8-8v0
		C104,104.582,107.582,101,112,101z"/>
	<path class="st6" d="M93,84h70c2.209,0,4,1.791,4,4v0c0,2.209-1.791,4-4,4H93c-2.209,0-4-1.791-4-4v0C89,85.791,90.791,84,93,84z"
		/>
	<path class="st6" d="M103,71h50c2.209,0,4,1.791,4,4v0c0,2.209-1.791,4-4,4h-50c-2.209,0-4-1.791-4-4v0
		C99,72.791,100.791,71,103,71z"/>
	<path class="st14" d="M190,205.995h32c4.418,0,8,3.582,8,8v0c0,4.418-3.582,8-8,8h-32c-4.418,0-8-3.582-8-8v0
		C182,209.577,185.582,205.995,190,205.995z"/>
	<path class="st2" d="M219.697,94.585l-6.803,4.802c-0.474,0.335-1.129-0.004-1.129-0.585v-9.604c0-0.58,0.654-0.919,1.129-0.585
		l6.803,4.802C220.101,93.7,220.101,94.3,219.697,94.585z"/>
	<path class="st2" d="M36.303,94.585l6.803,4.802c0.474,0.335,1.128-0.004,1.128-0.585v-9.604c0-0.58-0.654-0.919-1.128-0.585
		l-6.803,4.802C35.899,93.7,35.899,94.3,36.303,94.585z"/>
</g>
</svg>
