<?xml version="1.0" encoding="iso-8859-1"?>
<!-- Generator: Adobe Illustrator 19.0.1, SVG Export Plug-In . SVG Version: 6.00 Build 0)  -->
<svg version="1.1" id="Call_x5F_Center" xmlns="http://www.w3.org/2000/svg" xmlns:xlink="http://www.w3.org/1999/xlink" x="0px"
	 y="0px" viewBox="0 0 128 128" style="enable-background:new 0 0 128 128;" xml:space="preserve">
<g id="row3" style="display:none;">
	<path id="icon5" style="display:inline;fill:#5B5B5B;" d="M55.053,71.689L38.041,56.894L64,37.33l25.897,19.748L73.273,71.462
		L93.16,93.15V56.9L64,34.85L34.84,56.77v36.38L55.053,71.689z M37.84,93.15h52.32L70.449,72.343h-13L37.84,93.15z M55.641,64.319
		c-1.635-1.888-2.452-4.068-2.452-6.543c0-2.944,0.993-5.446,2.98-7.506c2.204-2.294,5.162-3.44,8.874-3.44
		c3.215,0,5.743,0.812,7.586,2.438c1.725,1.535,2.588,3.526,2.588,5.974c0,2.06-0.617,3.818-1.85,5.277
		c-1.232,1.458-2.612,2.188-4.139,2.188c-0.895,0-1.554-0.215-1.978-0.644c-0.425-0.429-0.637-0.946-0.637-1.551
		c0-0.1,0.009-0.203,0.026-0.312c0.019-0.108,0.041-0.222,0.068-0.339c-0.479,1.038-1.084,1.772-1.815,2.201
		s-1.485,0.644-2.263,0.644c-1.11,0-2.012-0.401-2.702-1.206c-0.691-0.804-1.037-1.837-1.037-3.102c0-1.798,0.59-3.383,1.769-4.756
		c1.179-1.372,2.445-2.059,3.8-2.059c0.921,0,1.682,0.267,2.282,0.799c0.601,0.533,0.919,1.175,0.955,1.924l0.678-2.275h1.991
		l-1.802,5.934c-0.135,0.46-0.234,0.831-0.298,1.11c-0.063,0.28-0.095,0.528-0.095,0.745c0,0.406,0.124,0.702,0.372,0.888
		c0.249,0.186,0.531,0.277,0.848,0.277c1.029,0,1.952-0.537,2.77-1.612c0.817-1.074,1.227-2.479,1.227-4.213
		c0-2.095-0.731-3.741-2.194-4.938c-1.464-1.197-3.433-1.795-5.907-1.795c-3.432,0-6.056,1.002-7.871,3.007
		c-1.553,1.707-2.33,3.853-2.33,6.436c0,2.258,0.741,4.154,2.222,5.689c1.734,1.815,4.204,2.723,7.411,2.723
		c1.499,0,2.894-0.236,4.186-0.711s2.475-1.113,3.55-1.917l0.894,1.22c-0.812,0.723-2.027,1.399-3.644,2.031
		c-1.617,0.633-3.396,0.949-5.338,0.949C60.591,67.855,57.682,66.676,55.641,64.319z M66.493,53.663
		c-0.374-0.446-0.891-0.67-1.549-0.67c-1.028,0-1.919,0.607-2.673,1.821c-0.753,1.215-1.13,2.423-1.13,3.624
		c0,0.886,0.194,1.561,0.582,2.025c0.388,0.466,0.875,0.698,1.462,0.698c1.218,0,2.167-0.712,2.848-2.134
		c0.682-1.423,1.022-2.707,1.022-3.854C67.055,54.614,66.868,54.111,66.493,53.663z"/>
	<path id="icon:4_2_" style="display:inline;fill:#5B5B5B;" d="M82.591,49.591c-7.95,0-14.409,6.46-14.409,14.409
		c0,3.691,1.384,7.046,3.662,9.603H56.156c2.278-2.557,3.662-5.912,3.662-9.603c0-7.95-6.46-14.409-14.409-14.409
		C37.46,49.591,31,56.05,31,64c0,7.44,5.662,13.583,12.91,14.332c0.49,0.048,0.99,0.077,1.5,0.077h37.182
		C90.54,78.409,97,71.95,97,64C97,56.05,90.54,49.591,82.591,49.591z M45.409,73.603c-5.296,0-9.603-4.306-9.603-9.603
		s4.306-9.603,9.603-9.603c5.297,0,9.603,4.306,9.603,9.603S50.706,73.603,45.409,73.603z M82.591,73.603
		c-5.297,0-9.603-4.306-9.603-9.603s4.306-9.603,9.603-9.603c5.296,0,9.603,4.306,9.603,9.603S87.887,73.603,82.591,73.603z"/>
	<path id="icon:3_2_" style="display:inline;fill-rule:evenodd;clip-rule:evenodd;fill:#5B5B5B;" d="M67.874,50.049h10.57
		c1.416,3.106,2.264,6.509,2.406,10.1H68.723C68.671,56.353,68.353,53.008,67.874,50.049z M63.255,35.758
		c6.063,2.324,11.039,6.721,14.158,12.272h-9.885C66.407,42.376,64.704,38.358,63.255,35.758z M54.402,48.029V33.93
		c2.18,0.094,4.295,0.434,6.318,0.994c1.536,2.545,3.515,6.796,4.765,13.105H54.402z M40.953,72.269
		c-0.479-2.961-0.81-6.286-0.86-10.1h12.26v10.1H40.953z M40.933,50.049h11.42v10.1H40.082
		C40.133,56.349,40.454,53.009,40.933,50.049z M46.062,34.879c2.019-0.534,4.118-0.877,6.292-0.946v14.096H41.271
		C42.528,41.685,44.522,37.419,46.062,34.879z M29.041,48.029c3.17-5.642,8.303-10.063,14.504-12.355
		c-1.458,2.598-3.186,6.64-4.319,12.355H29.041z M38.033,60.149H25.647c0.137-3.589,0.955-7,2.368-10.1h10.867
		C38.403,53.009,38.084,56.353,38.033,60.149z M38.906,72.269H28.093c-1.419-3.11-2.327-6.496-2.461-10.1h12.411
		C38.092,65.983,38.426,69.306,38.906,72.269z M39.242,74.289c1.142,5.771,2.893,9.809,4.361,12.377
		c-6.224-2.284-11.358-6.721-14.532-12.377H39.242z M52.353,74.289v14.096c-2.149-0.068-4.226-0.403-6.224-0.927
		c-1.542-2.493-3.548-6.778-4.817-13.169H52.353z M65.444,74.289c-1.262,6.352-3.251,10.623-4.79,13.122
		c-2,0.548-4.1,0.843-6.252,0.937V74.289H65.444z M54.402,62.169h12.26c-0.049,3.814-0.382,7.139-0.86,10.1h-11.4V62.169z
		 M66.674,60.149H54.402v-10.1h11.42C66.301,53.009,66.622,56.349,66.674,60.149z M68.713,62.169h12.115
		c-0.135,3.601-1.037,6.989-2.448,10.1H67.85C68.329,69.306,68.664,65.984,68.713,62.169z M77.399,74.289
		c-3.111,5.573-8.111,9.973-14.2,12.292c1.458-2.572,3.188-6.58,4.318-12.292H77.399z M93.438,67.844
		c1.506,0.877,0.783,2.85-0.112,4.78c-0.015,0.092-4.346,7.276-4.384,7.3c-2.239,2.99-3.453,4.365-4.892,3.529l-6.093,10.148
		c1.724,1.048,10.322,1.692,19.357-13.788c8.576-14.688,3.993-21.17,2.375-22.365L93.438,67.844z M74.241,91.464
		c-0.668-0.39-0.822-1.2-0.464-1.802l-0.002-0.007c0,0,4.757-7.906,4.76-7.909c0.376-0.627,1.188-0.822,1.82-0.459l2.914,1.699
		l-6.108,10.176c0,0-2.915-1.692-2.913-1.695L74.241,91.464z M89.726,65.683c-0.668-0.391-0.826-1.199-0.468-1.797l-0.002-0.008
		c0,0,4.894-8.136,4.896-8.138c0.377-0.63,1.19-0.823,1.819-0.46l2.915,1.7l-6.244,10.4c0,0-2.913-1.689-2.914-1.693L89.726,65.683z
		"/>
	<path id="icon:2_2_" style="display:inline;fill-rule:evenodd;clip-rule:evenodd;fill:#5B5B5B;" d="M93.878,31.566H59.54
		c-2.495,0-4.507,2.022-4.507,4.517V85.01c0,2.495,2.013,4.517,4.507,4.517h3.818c-1.918,1.947-5.433,4.233-11.396,4.233
		c-7.418,0-9.865-3.194-10.64-4.914h3.052c1.247,0,2.258-1.011,2.258-2.258V33.654c0-1.238-1.011-2.249-2.258-2.249H31.863
		c-1.238,0-2.249,1.011-2.249,2.249v52.934c0,1.247,1.011,2.258,2.249,2.258h6.454c0.548,1.994,3.071,7.748,13.645,7.748
		c9.024,0,13.361-4.545,15.062-7.068h26.855c2.495,0,4.507-2.022,4.507-4.517V36.082C98.386,33.588,96.373,31.566,93.878,31.566z
		 M40.972,87.807L39.99,87.94l0.983-0.142C40.972,87.798,40.972,87.798,40.972,87.807z M62.781,82.752v-4.507h4.507v4.507H62.781z
		 M67.288,62.446h-4.507v-4.507h4.507V62.446z M67.288,64.704v4.517h-4.507v-4.517H67.288z M67.288,71.47v4.517h-4.507V71.47H67.288
		z M79.279,82.752h-4.517v-4.507h4.517V82.752z M79.279,75.986h-4.517V71.47h4.517V75.986z M79.279,69.221h-4.517v-4.517h4.517
		V69.221z M79.279,62.446h-4.517v-4.507h4.517V62.446z M92.14,82.752h-4.517v-4.507h4.517V82.752z M92.14,75.986h-4.517V71.47h4.517
		V75.986z M92.14,69.221h-4.517v-4.517h4.517V69.221z M92.14,62.446h-4.517v-4.507h4.517V62.446z M93.878,47.355
		c0,1.247-1.011,2.258-2.258,2.258H62.611c-1.247,0-2.258-1.011-2.258-2.258v-9.024c0-1.247,1.011-2.249,2.258-2.249H91.62
		c1.247,0,2.258,1.002,2.258,2.249V47.355z"/>
	<path id="icon:1_2_" style="display:inline;fill:#5B5B5B;" d="M88.56,45.82c-0.238-12.673-10.623-22.915-23.353-22.915
		c-12.664,0-23.01,10.127-23.344,22.714c-0.763,0.124-1.345,0.791-1.345,1.583v13.55c0,0.887,0.725,1.612,1.612,1.612h1.612
		c0.849,0,1.554-0.667,1.602-1.507c1.602,1.545,3.709,3.366,6.017,4.844c4.31,5.741,9.812,9.727,13.579,9.727
		c6.122,0,16.821-10.556,19.587-22.028v7.352c0,0.887,0.725,1.612,1.612,1.612h1.612c0.887,0,1.612-0.725,1.612-1.612v-13.55
		C89.361,46.611,89.037,46.096,88.56,45.82z M45.353,58.159v-4.72c0.629,2.603,1.669,5.159,2.975,7.552
		C47.155,59.971,46.134,58.97,45.353,58.159z M64.939,73.522c-2.289,0-5.741-2.155-9.04-5.55c1.011,0.343,2.031,0.563,3.032,0.629
		c0.133,0.372,0.343,0.696,0.62,0.973c0.486,0.486,1.154,0.782,1.898,0.782h7.781c1.478,0,2.689-1.201,2.689-2.68
		c0-1.478-1.211-2.68-2.689-2.68h-7.781c-1.135,0-2.107,0.706-2.498,1.697c-2.003-0.162-4.11-1.068-6.093-2.289
		c-2.689-3.586-4.94-7.905-5.836-12.339c2.203-1.44,6.704-12.301,11.176-12.301c2.851,0,7.428,5.207,12.521,6.742
		c5.025,1.526,10.337,0.639,12.559,1.058c0.01,0.153,0.01,0.305,0.01,0.458C83.286,60.457,70.556,73.522,64.939,73.522z
		 M86.138,45.591c-0.391,0-0.744,0.134-1.02,0.381C84.269,34.405,76.201,26.5,64.939,26.5c-11.271,0-19.339,7.905-20.188,19.463
		c-0.267-0.229-0.61-0.362-0.982-0.372c0.353-11.519,9.841-20.779,21.437-20.779c11.605,0,21.084,9.259,21.437,20.779H86.138z
		 M102.873,105.095H25.127c0,0-9.412-17.508,21.837-26.157c4.53-3.538,5.54-4.615,5.54-4.615l8.649,26.863l1.192-12.044L60.4,88.007
		c0,0,3.776-4.406,3.891-5.035l4.167,4.911l-2.012,1.135l1.411,13.255l7.638-27.95c0,0,1.011,1.078,5.54,4.615
		C112.285,87.587,102.873,105.095,102.873,105.095z"/>
</g>
<g id="row2" style="display:none;">
	<path id="icon:5_3_" style="display:inline;fill:#5B5B5B;" d="M81.751,84.442L75.508,98.65l-2.289-7.031
		c-2.975,0.897-6.06,1.355-9.219,1.355c-17.54,0-31.812-14.272-31.812-31.812C32.188,43.622,46.46,29.35,64,29.35v6.408
		c-14.006,0-25.404,11.397-25.404,25.404S49.994,86.566,64,86.566c2.481,0,4.907-0.348,7.241-1.053l-2.115-6.509L81.751,84.442z
		 M71.468,30.137c-0.688-0.167-1.383-0.304-2.066-0.408l-0.962,6.336c0.5,0.076,1.01,0.177,1.517,0.299L71.468,30.137z
		 M91.245,78.426l-5.68-2.966c0.518-0.991,1.006-2.074,1.449-3.217l5.974,2.321C92.458,75.926,91.872,77.225,91.245,78.426z
		 M94.317,70.599l-6.163-1.755c0.334-1.173,0.609-2.344,0.815-3.479l6.304,1.151C95.029,67.853,94.708,69.227,94.317,70.599z
		 M95.786,62.239l-6.401-0.307c0.013-0.265,0.019-0.523,0.019-0.772c0-0.835-0.055-1.691-0.164-2.544l6.356-0.81
		c0.143,1.121,0.215,2.249,0.215,3.354C95.812,61.509,95.804,61.869,95.786,62.239z M88.554,55.287
		c-0.308-1.087-0.701-2.181-1.167-3.251l5.875-2.558c0.579,1.331,1.069,2.696,1.456,4.057L88.554,55.287z M85.797,48.932
		c-0.588-0.997-1.247-1.974-1.958-2.905l5.096-3.886c0.862,1.131,1.663,2.319,2.38,3.532L85.797,48.932z M81.554,43.366
		c-0.817-0.845-1.683-1.64-2.575-2.362l4.037-4.977c1.091,0.885,2.148,1.855,3.143,2.884L81.554,43.366z M76.158,39.002
		c-0.992-0.609-2.011-1.139-3.028-1.574l2.523-5.891c1.303,0.558,2.601,1.232,3.858,2.003L76.158,39.002z M87.491,83.854
		l-4.642-4.418c0.31-0.325,0.626-0.702,0.94-1.118l5.119,3.854C88.447,82.785,87.97,83.351,87.491,83.854z M53.184,69.344
		c0.498,0,0.886-0.088,1.165-0.264c0.278-0.176,0.417-0.505,0.417-0.989c0-0.484-0.139-0.813-0.417-0.989
		c-0.279-0.175-0.667-0.264-1.165-0.264h-4.328c0.131-0.468,0.351-0.937,0.659-1.406c0.308-0.468,0.762-1.003,1.362-1.604
		l1.824-1.823c0.659-0.66,1.145-1.348,1.461-2.066c0.315-0.717,0.472-1.442,0.472-2.175c0-1.421-0.388-2.483-1.164-3.185
		c-0.777-0.704-1.897-1.055-3.361-1.055c-0.645,0-1.224,0.099-1.736,0.297c-0.513,0.198-0.945,0.472-1.296,0.824
		c-0.351,0.351-0.623,0.772-0.813,1.263c-0.191,0.491-0.286,1.029-0.286,1.615c0,0.19,0.018,0.381,0.055,0.571
		c0.036,0.19,0.102,0.363,0.198,0.517c0.095,0.154,0.231,0.282,0.406,0.384c0.176,0.103,0.403,0.154,0.681,0.154
		c0.337,0,0.637-0.099,0.901-0.297s0.409-0.517,0.439-0.956c0.059-0.659,0.195-1.183,0.407-1.571
		c0.213-0.388,0.597-0.583,1.154-0.583c0.497,0,0.867,0.18,1.109,0.539c0.241,0.358,0.362,0.839,0.362,1.438
		c0,0.293-0.03,0.571-0.088,0.835c-0.059,0.264-0.157,0.527-0.297,0.791c-0.139,0.264-0.333,0.549-0.582,0.856
		c-0.249,0.308-0.564,0.653-0.945,1.033l-1.033,1.033c-0.601,0.601-1.092,1.19-1.472,1.768c-0.381,0.578-0.681,1.12-0.901,1.626
		c-0.219,0.505-0.369,0.966-0.45,1.384c-0.081,0.417-0.122,0.765-0.122,1.043c0,0.44,0.106,0.758,0.319,0.956
		c0.212,0.198,0.538,0.297,0.977,0.297H53.184z M61.159,68.026c0,0.557,0.121,0.964,0.362,1.219
		c0.242,0.257,0.568,0.384,0.978,0.384c0.41,0,0.736-0.128,0.978-0.384c0.241-0.256,0.362-0.662,0.362-1.219v-1.845h0.505
		c0.264,0,0.531-0.084,0.802-0.253c0.271-0.168,0.407-0.472,0.407-0.911c0-0.44-0.136-0.744-0.407-0.912
		c-0.271-0.169-0.538-0.253-0.802-0.253H63.84v-9.074c0-0.381-0.114-0.706-0.341-0.978c-0.227-0.27-0.611-0.406-1.153-0.406
		c-0.498,0-0.868,0.066-1.109,0.198c-0.241,0.131-0.472,0.425-0.692,0.879l-4.285,8.942c-0.293,0.63-0.439,1.151-0.439,1.56
		c0,0.454,0.139,0.77,0.417,0.945c0.278,0.176,0.673,0.264,1.186,0.264h3.735V68.026z M61.159,63.852h-2.966l2.922-6.349h0.044
		V63.852z M66.169,68.158c-0.089,0.22-0.132,0.477-0.132,0.769c0,0.249,0.106,0.443,0.319,0.582
		c0.212,0.139,0.457,0.209,0.736,0.209c0.292,0,0.545-0.096,0.758-0.286c0.212-0.19,0.369-0.417,0.472-0.681l5.031-14.039
		c0.088-0.219,0.132-0.476,0.132-0.769c0-0.249-0.107-0.443-0.319-0.582c-0.213-0.139-0.458-0.209-0.736-0.209
		c-0.293,0-0.546,0.096-0.758,0.286c-0.213,0.19-0.37,0.417-0.472,0.681L66.169,68.158z M80.054,56.448
		c-0.351,0.601-0.692,1.26-1.022,1.978c-0.329,0.718-0.641,1.457-0.933,2.219c-0.293,0.762-0.561,1.516-0.802,2.263
		c-0.242,0.747-0.454,1.45-0.637,2.11c-0.183,0.659-0.323,1.26-0.417,1.801c-0.096,0.542-0.143,0.974-0.143,1.296
		c0,0.425,0.103,0.783,0.308,1.076c0.206,0.293,0.55,0.439,1.033,0.439c0.484,0,0.861-0.135,1.132-0.406s0.428-0.641,0.472-1.109
		c0.089-0.879,0.242-1.827,0.462-2.846c0.219-1.017,0.479-2.028,0.78-3.032s0.626-1.963,0.978-2.879
		c0.351-0.915,0.703-1.717,1.054-2.406c0.206-0.395,0.367-0.71,0.484-0.945c0.117-0.234,0.201-0.425,0.253-0.571
		c0.051-0.146,0.084-0.256,0.098-0.329s0.022-0.139,0.022-0.198c0-0.454-0.121-0.751-0.363-0.89
		c-0.241-0.139-0.589-0.208-1.043-0.208h-6.745c-0.249,0-0.461,0.044-0.637,0.131c-0.175,0.089-0.318,0.202-0.428,0.341
		c-0.11,0.139-0.19,0.286-0.241,0.44c-0.052,0.154-0.077,0.296-0.077,0.428c0,0.117,0.025,0.253,0.077,0.407
		c0.051,0.154,0.131,0.296,0.241,0.428c0.11,0.131,0.253,0.241,0.428,0.329c0.176,0.089,0.388,0.132,0.637,0.132H80.054z"/>
	<path id="icon:4_4_" style="display:inline;fill:#5B5B5B;" d="M46.139,40.254c-2.212,1.656-8.475,10.639,3.245,30.994
		c12.348,21.452,24.098,20.559,26.455,19.107l-8.326-14.063c-1.967,1.159-3.625-0.748-6.686-4.891
		c-0.052-0.033-5.972-9.989-5.992-10.117c-1.224-2.675-2.211-5.409-0.153-6.624L46.139,40.254z M80.909,87.395
		c0.003,0.005-3.981,2.349-3.981,2.349L68.58,75.643l3.983-2.355c0.864-0.504,1.973-0.233,2.487,0.635
		c0.004,0.005,6.505,10.961,6.505,10.961l-0.002,0.009c0.49,0.834,0.279,1.958-0.634,2.498L80.909,87.395z M59.753,51.672
		c-0.002,0.006-3.983,2.347-3.983,2.347l-8.534-14.413l3.983-2.356c0.86-0.503,1.972-0.236,2.486,0.637
		c0.003,0.003,6.691,11.277,6.691,11.277l-0.003,0.011c0.489,0.828,0.274,1.948-0.64,2.49L59.753,51.672z M81.986,64.765
		l-4.232-4.232l-4.232,4.232l-3.535-3.535l4.232-4.232l-4.232-4.232l3.535-3.535l4.232,4.232l4.232-4.232l3.535,3.535l-4.232,4.232
		l4.232,4.232L81.986,64.765z"/>
	<path id="icon:3_4_" style="display:inline;fill-rule:evenodd;clip-rule:evenodd;fill:#5B5B5B;" d="M42.635,35.385
		c-1.313,0-2.378,1.068-2.378,2.385c0,1.317,1.065,2.384,2.378,2.384h43.566v50.077c0,2.634-2.13,4.769-4.757,4.769h-38.81
		c-2.627,0-4.757-2.135-4.757-4.769h1.189c1.97,0,3.567-1.602,3.567-3.577c0-1.976-1.597-3.577-3.567-3.577h-1.189v-2.385h1.189
		c1.97,0,3.567-1.602,3.567-3.577c0-1.975-1.597-3.577-3.567-3.577h-1.189v-2.385h1.189c1.97,0,3.567-1.601,3.567-3.577
		c0-1.976-1.597-3.577-3.567-3.577h-1.189v-2.385h1.189c1.97,0,3.567-1.601,3.567-3.577c0-1.975-1.597-3.577-3.567-3.577h-1.189
		v-2.385h1.189c1.97,0,3.567-1.602,3.567-3.577c0-1.976-1.597-3.577-3.567-3.577h-1.189v-7.154c0-2.634,2.13-4.769,4.757-4.769
		h38.81c1.756,0,3.273,0.965,4.097,2.385H42.635z M40.257,48.5c0,0.658-0.533,1.192-1.189,1.192h-2.378
		c-0.657,0-1.189-0.534-1.189-1.192c0-0.659,0.533-1.193,1.189-1.193h2.378C39.724,47.308,40.257,47.841,40.257,48.5z
		 M36.689,56.846h2.378c0.657,0,1.189,0.534,1.189,1.192c0,0.658-0.533,1.192-1.189,1.192h-2.378c-0.657,0-1.189-0.534-1.189-1.192
		C35.5,57.38,36.033,56.846,36.689,56.846z M36.689,66.385h2.378c0.657,0,1.189,0.534,1.189,1.192c0,0.658-0.533,1.192-1.189,1.192
		h-2.378c-0.657,0-1.189-0.534-1.189-1.192C35.5,66.918,36.033,66.385,36.689,66.385z M36.689,75.923h2.378
		c0.657,0,1.189,0.534,1.189,1.192c0,0.659-0.533,1.193-1.189,1.193h-2.378c-0.657,0-1.189-0.534-1.189-1.193
		C35.5,76.457,36.033,75.923,36.689,75.923z M36.689,85.462h2.378c0.657,0,1.189,0.534,1.189,1.192s-0.533,1.192-1.189,1.192h-2.378
		c-0.657,0-1.189-0.534-1.189-1.192S36.033,85.462,36.689,85.462z M92.5,49.543h-4.757V42.39H92.5V49.543z M92.5,59.231h-4.757
		v-7.154H92.5V59.231z M92.5,68.62h-4.757v-7.154H92.5V68.62z"/>
	<path id="icon:2_4_" style="display:inline;fill:#5B5B5B;" d="M40.453,40.254c-2.212,1.656-8.475,10.639,3.245,30.994
		c12.348,21.452,24.098,20.559,26.455,19.107l-8.326-14.063c-1.967,1.159-3.625-0.748-6.686-4.891
		c-0.052-0.033-5.972-9.989-5.992-10.117c-1.224-2.675-2.211-5.409-0.153-6.624L40.453,40.254z M75.224,87.395
		c0.003,0.005-3.981,2.349-3.981,2.349l-8.348-14.101l3.983-2.355c0.864-0.504,1.973-0.233,2.487,0.635
		c0.004,0.005,6.505,10.961,6.505,10.961l-0.002,0.009c0.49,0.834,0.279,1.958-0.634,2.498L75.224,87.395z M54.068,51.672
		c-0.002,0.006-3.983,2.347-3.983,2.347l-8.534-14.413l3.983-2.356c0.86-0.503,1.972-0.236,2.486,0.637
		c0.003,0.003,6.691,11.277,6.691,11.277l-0.003,0.011c0.489,0.828,0.274,1.948-0.64,2.49L54.068,51.672z M89.294,46.427
		l1.914,4.212l-15.325,6.962l2.87,6.318l-12.567-4.453l4.913-12.395l2.87,6.318L89.294,46.427z"/>
	<path id="icon:1_4_" style="display:inline;fill:#5B5B5B;" d="M74.907,27.745v17.528H53.061c-1.063,0-1.917,0.864-1.917,1.926
		v22.377h-6.377L32.25,80.556c-0.864,0.569-2.012-0.047-2.012-1.082v-9.898h-9.471c-0.531,0-0.968-0.437-0.968-0.977V27.745
		c0-0.541,0.436-0.977,0.968-0.977h53.172C74.47,26.768,74.907,27.204,74.907,27.745z M96.979,101.108l0.1-0.05
		c0.428-0.246,0.683-0.687,0.683-1.181v-9.847h9.42l1.019-0.028V47.149l-55.19-0.029l-0.02,42.882l30.166,0.029l12.453,10.913
		l0.162,0.116c0.158,0.09,0.376,0.174,0.641,0.174C96.582,101.232,96.773,101.198,96.979,101.108z M55.01,49.12l51.191,0.027v38.883
		H95.762v10.387L83.91,88.031l-28.918-0.028L55.01,49.12z M66.817,73.333c2.854,0,5.167-2.323,5.167-5.189
		c0-2.866-2.313-5.189-5.167-5.189c-2.854,0-5.167,2.323-5.167,5.189C61.65,71.01,63.964,73.333,66.817,73.333z M80.381,73.333
		c2.854,0,5.167-2.323,5.167-5.189c0-2.866-2.313-5.189-5.167-5.189s-5.167,2.323-5.167,5.189
		C75.214,71.01,77.527,73.333,80.381,73.333z M93.944,73.333c2.854,0,5.167-2.323,5.167-5.189c0-2.866-2.313-5.189-5.167-5.189
		s-5.167,2.323-5.167,5.189C88.777,71.01,91.091,73.333,93.944,73.333z"/>
</g>
<g id="row1">
	<path id="icon:5" style="display:none;fill:#5B5B5B;" d="M107,47.177l-10.534-2.896l-1.751-2.861L97.123,31L78.722,41.532
		l-1.396,6.067c-5.778-7.127-14.748-11.721-24.803-11.721C35.144,35.878,21,49.59,21,66.439C21,83.288,35.144,97,52.523,97
		c17.38,0,31.514-13.712,31.514-30.561c0-3.68-0.676-7.222-1.911-10.497l6.454,1.775L107,47.177z M80.286,42.635l14.215-8.127
		l-1.485,6.455L78.81,49.056L80.286,42.635z M82.26,66.439c0,15.901-13.335,28.837-29.736,28.837
		c-16.402,0-29.745-12.936-29.745-28.837c0-15.901,13.344-28.837,29.745-28.837c10.019,0,18.9,4.826,24.287,12.212
		c0.062,0.086,0.124,0.181,0.187,0.267c0,0.06-5.627,3.197-5.627,3.197c-4.223-5.671-11.094-9.368-18.846-9.368
		c-12.819,0-23.247,10.101-23.247,22.529c0,12.428,10.428,22.529,23.247,22.529c12.81,0,23.238-10.101,23.238-22.529
		c0-2.844-0.551-5.576-1.556-8.084l5.672-3.223c0.018,0.043,0.044,0.086,0.062,0.138c0.009,0.026,0.027,0.052,0.036,0.086
		C81.451,58.769,82.26,62.509,82.26,66.439z M51.163,68.128c0.836,1.37,2.658,1.827,4.072,1.017l10.09-5.74
		c0.249,0.974,0.382,1.991,0.382,3.034c0,7.05-5.912,12.781-13.184,12.781c-7.272,0-13.184-5.731-13.184-12.781
		c0-7.05,5.912-12.781,13.184-12.781c4.063,0,7.699,1.784,10.117,4.594l-10.428,5.929c-0.942,0.534-1.467,1.5-1.467,2.482
		C50.745,67.163,50.879,67.671,51.163,68.128z M64.187,57.372c-2.738-3.318-6.952-5.438-11.663-5.438
		c-8.25,0-14.962,6.507-14.962,14.505c0,7.998,6.712,14.505,14.962,14.505c8.25,0,14.962-6.507,14.962-14.505
		c0-1.362-0.196-2.689-0.569-3.939l5.734-3.258c0.862,2.241,1.333,4.671,1.333,7.196c0,11.471-9.628,20.805-21.46,20.805
		c-11.841,0-21.469-9.334-21.469-20.805c0-11.471,9.628-20.805,21.469-20.805c7.094,0,13.397,3.361,17.308,8.524L64.187,57.372z
		 M81.771,54.054l14.25-8.101l6.507,1.784l-14.197,8.119L81.771,54.054z"/>
	<path id="icon:4" style="display:none;fill-rule:evenodd;clip-rule:evenodd;fill:#5B5B5B;" d="M85.52,39.83H72.13
		c0.01-0.65,0.01-1.44,0.01-2.39c0-4.48-3.73-8.27-8.14-8.27c-4.43,0-8.03,3.7-8.03,8.25c0,0.95,0,1.75-0.01,2.41H42.48
		c-1.64,0-2.98,1.35-2.98,2.98v53.04c0,1.64,1.34,2.98,2.98,2.98h43.04c1.64,0,2.98-1.34,2.98-2.98V42.81
		C88.5,41.18,87.16,39.83,85.52,39.83z M64,34.5c1.36,0,2.47,1.11,2.47,2.47s-1.11,2.47-2.47,2.47s-2.47-1.11-2.47-2.47
		S62.64,34.5,64,34.5z M84.17,94.51H43.83V44.5h5.42c0,1.23,0,3.93,0,3.93h29.5c0,0,0-2.7,0-3.93h5.42V94.51z M49.58,88.63
		c-1.11,0-2-0.9-2-2c0-1.11,0.89-2,2-2c1.1,0,2,0.89,2,2C51.58,87.73,50.68,88.63,49.58,88.63z M49.58,78.63c-1.11,0-2-0.9-2-2
		c0-1.11,0.89-2,2-2c1.1,0,2,0.89,2,2C51.58,77.73,50.68,78.63,49.58,78.63z M49.58,68.63c-1.11,0-2-0.9-2-2c0-1.11,0.89-2,2-2
		c1.1,0,2,0.89,2,2C51.58,67.73,50.68,68.63,49.58,68.63z M49.58,58.63c-1.11,0-2-0.9-2-2c0-1.11,0.89-2,2-2c1.1,0,2,0.89,2,2
		C51.58,57.73,50.68,58.63,49.58,58.63z M80.42,87.84H54.55V85.5h25.87V87.84z M80.42,77.82H54.55v-2.34h25.87V77.82z M80.42,67.8
		H54.55v-2.34h25.87V67.8z M80.42,57.77H54.55v-2.34h25.87V57.77z"/>
	<path id="icon:3" style="display:none;fill:#5B5B5B;" d="M42.11,40.254c-2.212,1.656-8.475,10.639,3.245,30.994
		C57.703,92.699,69.454,91.807,71.81,90.354l-8.326-14.063c-1.967,1.159-3.625-0.748-6.686-4.891
		c-0.052-0.033-5.972-9.989-5.992-10.117c-1.224-2.675-2.211-5.409-0.153-6.624L42.11,40.254z M76.88,87.395
		c0.003,0.005-3.981,2.349-3.981,2.349l-8.348-14.101l3.983-2.355c0.864-0.504,1.973-0.233,2.487,0.635
		c0.004,0.005,6.505,10.961,6.505,10.961l-0.002,0.009c0.49,0.834,0.279,1.958-0.634,2.498L76.88,87.395z M55.724,51.672
		c-0.002,0.006-3.983,2.347-3.983,2.347l-8.534-14.413l3.983-2.356c0.86-0.503,1.972-0.236,2.486,0.637
		c0.003,0.003,6.691,11.277,6.691,11.277l-0.003,0.011c0.489,0.828,0.274,1.948-0.64,2.49L55.724,51.672z M79.986,50.262
		l-3.251-6.131l12.816,3.677L85.405,60.48l-3.251-6.131l-14.871,7.886l-2.168-4.087L79.986,50.262z"/>
	<path style="display:none;fill:#5B5B5B;" d="M67.91,65.73h4.24v-7.32L67.91,65.73z M67.91,65.73h4.24v-7.32L67.91,65.73z
		 M67.91,65.73h4.24v-7.32L67.91,65.73z M67.91,65.73h4.24v-7.32L67.91,65.73z M67.91,65.73h4.24v-7.32L67.91,65.73z M67.91,65.73
		h4.24v-7.32L67.91,65.73z M67.91,65.73h4.24v-7.32L67.91,65.73z M67.91,65.73h4.24v-7.32L67.91,65.73z M67.91,65.73h4.24v-7.32
		L67.91,65.73z M67.91,65.73h4.24v-7.32L67.91,65.73z M64,32.37c-17.44,0-31.63,14.19-31.63,31.63S46.56,95.63,64,95.63
		S95.63,81.44,95.63,64S81.44,32.37,64,32.37z M42,65h-7v-2h7V65z M44.2,85.21l-1.41-1.41l4.95-4.95l1.41,1.41L44.2,85.21z
		 M47.74,49.15l-4.95-4.95l1.41-1.41l4.95,4.95L47.74,49.15z M59.79,58.46c-0.4-0.47-0.97-0.71-1.71-0.71
		c-1.02,0-1.71,0.38-2.08,1.14c-0.21,0.43-0.33,1.13-0.37,2.08h-3.25c0.06-1.44,0.32-2.61,0.79-3.5c0.89-1.7,2.47-2.54,4.75-2.54
		c1.8,0,3.23,0.49,4.29,1.49c1.07,1,1.6,2.31,1.6,3.96c0,1.25-0.38,2.37-1.13,3.35c-0.49,0.65-1.3,1.37-2.43,2.16l-1.34,0.95
		c-0.84,0.6-1.41,1.03-1.72,1.29c-0.31,0.27-0.57,0.58-0.78,0.93h7.42V72H52.19c0.04-1.22,0.3-2.33,0.79-3.34
		c0.48-1.13,1.6-2.33,3.37-3.6c1.54-1.1,2.54-1.89,2.99-2.36c0.7-0.75,1.05-1.56,1.05-2.44C60.39,59.54,60.19,58.94,59.79,58.46z
		 M65,93h-2v-7h2V93z M65,42h-2v-7h2V42z M77.34,68.34h-1.92V72h-3.27v-3.66h-6.73v-2.91l6.25-10.32h3.75v10.62h1.92V68.34z
		 M83.8,85.21l-4.95-4.95l1.41-1.41l4.95,4.95L83.8,85.21z M80.26,49.15l-1.41-1.41l4.95-4.95l1.41,1.41L80.26,49.15z M86,65v-2h7v2
		H86z M72.15,65.73v-7.32l-4.24,7.32H72.15z M67.91,65.73h4.24v-7.32L67.91,65.73z M67.91,65.73h4.24v-7.32L67.91,65.73z
		 M67.91,65.73h4.24v-7.32L67.91,65.73z M67.91,65.73h4.24v-7.32L67.91,65.73z M67.91,65.73h4.24v-7.32L67.91,65.73z M67.91,65.73
		h4.24v-7.32L67.91,65.73z M67.91,65.73h4.24v-7.32L67.91,65.73z M67.91,65.73h4.24v-7.32L67.91,65.73z M64,28
		c-19.85,0-36,16.15-36,36c0,19.85,16.15,36,36,36c19.85,0,36-16.15,36-36C100,44.15,83.85,28,64,28z M64,98
		c-18.75,0-34-15.25-34-34s15.25-34,34-34s34,15.25,34,34S82.75,98,64,98z"/>
	<path id="icon:1" style="fill:#5B5B5B;" d="M101,67.428v12.393c0,0.864-0.703,1.561-1.555,1.561c-0.225,0-0.45-0.046-0.646-0.149
		v1.375c0,2.36-1.92,4.283-4.271,4.283c-0.094,0-0.187,0-0.281-0.009c-1.105,2.462-3.026,4.859-5.62,6.949
		c-2.548,2.053-5.424,3.568-8.252,4.404h-0.009C80.139,99.247,79.222,100,78.135,100H69.92c-1.265,0-2.295-1.022-2.295-2.276v-0.028
		c0-1.245,1.03-2.267,2.295-2.267h8.215c0.796,0,1.499,0.409,1.911,1.022c5.461-1.579,10.285-5.853,12.355-10.145
		c-1.274-0.734-2.136-2.118-2.136-3.698V65.617c0-1.18,0.478-2.248,1.246-3.029c0.534-0.53,1.208-0.92,1.958-1.115v-0.595
		c0-11.093-6.388-21.442-16.308-26.468l-0.543,1.096c-3.859-1.895-7.99-2.861-12.29-2.861c-4.253,0-8.337,0.938-12.149,2.787
		l-0.693-1.403c-0.103,0.046-0.206,0.102-0.309,0.149C40.985,39.12,34.409,49.6,34.409,60.878v0.557
		c0.796,0.186,1.518,0.595,2.08,1.152c0.768,0.78,1.246,1.849,1.246,3.029v16.992c0,2.36-1.92,4.283-4.262,4.283
		c-2.351,0-4.271-1.923-4.271-4.283v-1.375c-0.197,0.102-0.421,0.149-0.646,0.149c-0.852,0-1.555-0.697-1.555-1.561V67.428
		c0-0.855,0.703-1.552,1.555-1.552c0.225,0,0.45,0.046,0.646,0.139v-0.399c0-2.025,1.424-3.744,3.335-4.181v-0.557
		c0-11.985,6.988-23.114,17.816-28.363c0.103-0.046,0.206-0.102,0.309-0.149l-0.543-1.106C54.577,29.096,59.363,28,64.328,28
		c5.03,0,9.864,1.124,14.369,3.344l-0.703,1.403c10.547,5.333,17.348,16.342,17.348,28.131v0.529
		c1.967,0.39,3.456,2.137,3.456,4.209v0.399c0.197-0.093,0.421-0.139,0.646-0.139C100.297,65.877,101,66.573,101,67.428z"/>
</g>
</svg>
